<svg width="42" height="65" viewBox="0 0 42 65" fill="none" xmlns="http://www.w3.org/2000/svg">
<path d="M25.7395 43.8359C23.4668 43.0224 20.2822 42.4308 17.5713 43.7194C22.5268 43.7842 22.0543 45.3206 25.1283 46.1577C31.4007 47.736 32.4282 42.1941 32.5159 39.2891C32.1 41.6453 28.5805 44.8527 25.7395 43.8359Z" fill="#B9B9B9"/>
<path d="M8.87497 15.9302C8.87497 11.8833 5.01917 9.87108 2.79383 9.51855C15.3262 9.51855 13.4358 22.1435 11.6511 26.44C9.78028 30.9439 5.27917 40.7703 10.9901 47.3273C16.7011 53.8843 13.8985 61.6488 11.7833 64.7114C12.9731 59.82 16.3442 54.7304 6.62757 46.9307C-3.08901 39.131 -0.246775 29.6788 3.38867 24.3909C5.62203 21.1423 8.87497 18.8385 8.87497 15.9302Z" fill="#B9B9B9"/>
<path d="M14.0948 29.6019C4.90436 35.597 10.7211 46.1588 15.0419 51.1295C12.0706 40.7402 12.0849 36.773 18.9023 32.0007C38.9023 18.0008 40.0813 15.7113 39.2624 10.6307C38.2634 18.2834 19.6904 25.9519 14.0948 29.6019Z" fill="#FF0000" fill-opacity="0.79"/>
<path d="M1.66006 2.02569C-1.58281 5.01326 3.51745 7.241 7.37442 9.18855C6.78383 4.18628 13.086 10.5874 13.086 10.5874C14.9675 12.1549 18.9171 10.3787 18.9023 9.54133C18.8087 9.92037 16.8754 10.0899 16.2348 9.06322C13.7411 5.06703 12.1795 6.52515 12.1707 6.32705C11.8101 1.73796 7.39139 2.96468 7.14492 3.97175C6.61286 2.40705 3.91892 0.735315 1.66006 2.02569Z" fill="#FF0000" fill-opacity="0.79"/>
<path d="M5.00789 15.7327C6.17124 14.4636 5.75702 12.6481 5.40449 11.8989C5.27229 12.7582 5.40449 12.8243 4.0825 13.5514C3.02492 14.1331 2.62831 14.9395 2.82662 15.5344C3.06898 16.1293 3.84455 17.0018 5.00789 15.7327Z" fill="#FF0000" fill-opacity="0.79"/>
<path d="M27.691 32.37C20.5523 34.6439 16.2559 39.2664 15 41.2934C27.6249 31.9734 24.9149 41.2934 31.9875 36.8648C37.6456 33.3219 36.8568 24.8127 35.7552 21.001C36.0416 23.8432 34.8298 30.0962 27.691 32.37Z" fill="#B9B9B9"/>
</svg>
